<svg width="115" height="19" viewBox="0 0 115 19" fill="none" xmlns="http://www.w3.org/2000/svg">
<path d="M8.456 18.264C6.984 18.264 5.64 17.904 4.424 17.184C3.224 16.464 2.264 15.448 1.544 14.136C0.84 12.824 0.488 11.272 0.488 9.48C0.488 8.184 0.704 6.992 1.136 5.904C1.568 4.816 2.16 3.88 2.912 3.096C3.664 2.312 4.528 1.704 5.504 1.272C6.48 0.839999 7.512 0.623999 8.6 0.623999C9.304 0.623999 9.936 0.711999 10.496 0.887999C11.056 1.064 11.512 1.232 11.864 1.392C12.28 1.568 12.568 1.688 12.728 1.752C12.904 1.816 13.096 1.848 13.304 1.848C13.528 1.848 13.68 1.752 13.76 1.56C13.856 1.352 13.904 1.152 13.904 0.959999H14.504L14.456 3.72L14.504 6.528H13.904C13.872 5.44 13.584 4.512 13.04 3.744C12.512 2.96 11.84 2.368 11.024 1.968C10.224 1.552 9.392 1.344 8.528 1.344C6.656 1.344 5.256 2.048 4.328 3.456C3.4 4.864 2.936 6.872 2.936 9.48C2.936 12.232 3.432 14.264 4.424 15.576C5.416 16.888 6.808 17.544 8.6 17.544C9.496 17.544 10.288 17.4 10.976 17.112C11.664 16.824 12.208 16.448 12.608 15.984C13.008 15.504 13.208 15.008 13.208 14.496V13.824C13.208 13.12 13.04 12.616 12.704 12.312C12.384 12.008 11.784 11.816 10.904 11.736L9.872 11.64V11.064L13.856 11.16L17.552 11.064V11.64L16.472 11.736C16.04 11.768 15.688 11.936 15.416 12.24C15.144 12.544 15.008 13.072 15.008 13.824V14.256C15.008 14.624 15.064 14.968 15.176 15.288C15.304 15.608 15.424 15.88 15.536 16.104L15.872 16.704L15.32 17.064C15.112 16.728 14.904 16.504 14.696 16.392C14.504 16.264 14.336 16.2 14.192 16.2C13.936 16.2 13.704 16.264 13.496 16.392C13.288 16.52 13.064 16.672 12.824 16.848C12.552 17.04 12.224 17.248 11.84 17.472C11.472 17.696 11.016 17.88 10.472 18.024C9.928 18.184 9.256 18.264 8.456 18.264ZM17.4837 18.072V17.472L17.6997 17.448C18.2598 17.368 18.7158 17.256 19.0678 17.112C19.4358 16.968 19.7478 16.736 20.0038 16.416C20.2758 16.08 20.5318 15.624 20.7718 15.048L26.5798 0.959999H27.3958L33.0598 15.048C33.3798 15.832 33.7238 16.408 34.0918 16.776C34.4598 17.144 34.9638 17.36 35.6038 17.424L36.0838 17.472V18.072L33.1078 18L29.2678 18.072V17.472L29.7478 17.424C30.3078 17.36 30.7078 17.24 30.9478 17.064C31.1878 16.888 31.3078 16.64 31.3078 16.32C31.3078 16 31.1958 15.568 30.9718 15.024L29.7238 11.904H22.9558L21.6598 15.024C21.5478 15.312 21.4518 15.576 21.3717 15.816C21.2918 16.04 21.2518 16.24 21.2518 16.416C21.2518 16.72 21.3798 16.952 21.6358 17.112C21.9078 17.272 22.3478 17.376 22.9558 17.424L23.4358 17.472V18.072L20.3878 18L17.4837 18.072ZM23.2678 11.136H29.4358L26.4118 3.528L23.2678 11.136ZM36.6866 18.072V17.472L37.1666 17.424C37.7266 17.36 38.1506 17.28 38.4386 17.184C38.7426 17.088 38.9506 16.864 39.0626 16.512C39.1746 16.16 39.2306 15.592 39.2306 14.808V4.152C39.2306 3.352 39.1746 2.784 39.0626 2.448C38.9506 2.096 38.7426 1.872 38.4386 1.776C38.1506 1.664 37.7266 1.584 37.1666 1.536L36.6866 1.488V0.887999L40.2866 0.959999L43.3826 0.887999V1.44L42.9986 1.488C42.5346 1.536 42.1746 1.608 41.9186 1.704C41.6786 1.8 41.5106 2.008 41.4146 2.328C41.3186 2.632 41.2706 3.144 41.2706 3.864V13.872C41.2706 14.656 41.3106 15.304 41.3906 15.816C41.4866 16.328 41.7346 16.704 42.1346 16.944C42.5346 17.184 43.1826 17.304 44.0786 17.304H45.8786C47.2706 17.304 48.2706 16.936 48.8786 16.2C49.5026 15.448 49.8706 14.368 49.9826 12.96H50.5106L50.2706 18.072L40.2386 18L36.6866 18.072ZM52.3194 18.072V17.472L52.7994 17.424C53.3594 17.36 53.7834 17.28 54.0714 17.184C54.3754 17.088 54.5834 16.864 54.6954 16.512C54.8074 16.16 54.8634 15.592 54.8634 14.808V4.152C54.8634 3.352 54.8074 2.784 54.6954 2.448C54.5834 2.096 54.3754 1.872 54.0714 1.776C53.7834 1.664 53.3594 1.584 52.7994 1.536L52.3194 1.488V0.887999L55.9194 0.959999L59.0154 0.887999V1.44L58.6314 1.488C58.1674 1.536 57.8074 1.608 57.5514 1.704C57.3114 1.8 57.1434 2.008 57.0474 2.328C56.9514 2.632 56.9034 3.144 56.9034 3.864V13.872C56.9034 14.656 56.9434 15.304 57.0234 15.816C57.1194 16.328 57.3674 16.704 57.7674 16.944C58.1674 17.184 58.8154 17.304 59.7114 17.304H61.5114C62.9034 17.304 63.9034 16.936 64.5114 16.2C65.1354 15.448 65.5034 14.368 65.6154 12.96H66.1434L65.9034 18.072L55.8714 18L52.3194 18.072ZM67.9522 18.072V17.472L68.4322 17.424C68.9922 17.36 69.4162 17.28 69.7042 17.184C70.0082 17.072 70.2162 16.848 70.3282 16.512C70.4402 16.16 70.4962 15.592 70.4962 14.808V4.152C70.4962 3.352 70.4402 2.784 70.3282 2.448C70.2162 2.112 70.0082 1.896 69.7042 1.8C69.4162 1.688 68.9922 1.6 68.4322 1.536L67.9522 1.488V0.887999L71.5042 0.959999H80.8162L80.8642 2.688L81.0562 4.896H80.4802C80.3682 4.176 80.2162 3.6 80.0242 3.168C79.8482 2.736 79.5922 2.416 79.2562 2.208C78.9202 1.984 78.4642 1.84 77.8882 1.776C77.3282 1.696 76.6002 1.656 75.7042 1.656H72.5362V8.688H75.2242C75.5442 8.688 75.8242 8.616 76.0642 8.472C76.3042 8.312 76.4962 8.024 76.6402 7.608C76.8002 7.192 76.8962 6.592 76.9282 5.808H77.5282L77.4562 9.024L77.5282 12.576H76.9282C76.9282 11.408 76.7842 10.584 76.4962 10.104C76.2082 9.608 75.7842 9.36 75.2242 9.36H72.5362V15.432C72.5362 16.2 72.7042 16.712 73.0402 16.968C73.3762 17.208 74.0002 17.328 74.9122 17.328H77.1442C78.0722 17.328 78.7922 17.224 79.3042 17.016C79.8322 16.808 80.2242 16.392 80.4802 15.768C80.7362 15.128 80.9122 14.192 81.0082 12.96H81.6082L81.4402 15.84L81.3682 18H71.5042L67.9522 18.072ZM97.1461 18.264C96.2661 18.264 95.6101 17.968 95.1781 17.376C94.7621 16.768 94.4901 16.024 94.3621 15.144C94.2821 14.504 94.1541 13.864 93.9781 13.224C93.8181 12.584 93.5541 12 93.1861 11.472C92.8341 10.928 92.3301 10.496 91.6741 10.176C91.0341 9.856 90.1941 9.696 89.1541 9.696H88.1221V14.808C88.1221 15.592 88.1781 16.16 88.2901 16.512C88.4021 16.848 88.6101 17.072 88.9141 17.184C89.2181 17.28 89.6421 17.36 90.1861 17.424L90.6661 17.472V18.072L87.1141 18H87.0901L83.5381 18.072V17.472L84.0181 17.424C84.5781 17.36 85.0021 17.28 85.2901 17.184C85.5941 17.072 85.8021 16.848 85.9141 16.512C86.0261 16.16 86.0821 15.592 86.0821 14.808V4.152C86.0821 3.352 86.0261 2.784 85.9141 2.448C85.8021 2.112 85.5941 1.896 85.2901 1.8C85.0021 1.688 84.5781 1.6 84.0181 1.536L83.5381 1.488V0.887999L87.0901 0.959999H90.4501C91.5381 0.959999 92.5461 1.088 93.4741 1.344C94.4021 1.584 95.1461 2.008 95.7061 2.616C96.2821 3.224 96.5701 4.072 96.5701 5.16C96.5701 6.12 96.3541 6.904 95.9221 7.512C95.5061 8.104 94.9461 8.56 94.2421 8.88C93.5541 9.184 92.8021 9.4 91.9861 9.528C93.1701 9.608 94.1301 10.016 94.8661 10.752C95.6181 11.472 96.0981 12.536 96.3061 13.944C96.4501 14.84 96.6261 15.544 96.8341 16.056C97.0581 16.552 97.2981 16.904 97.5541 17.112C97.8261 17.304 98.0981 17.4 98.3701 17.4C98.5461 17.4 98.7141 17.368 98.8741 17.304C99.0501 17.24 99.2021 17.176 99.3301 17.112L99.4981 17.712C99.2421 17.84 98.8981 17.96 98.4661 18.072C98.0341 18.2 97.5941 18.264 97.1461 18.264ZM90.4981 1.584H88.1221V9.048H90.1381C91.6741 9.048 92.7461 8.736 93.3541 8.112C93.9781 7.488 94.2901 6.552 94.2901 5.304C94.2901 4.12 94.0101 3.208 93.4501 2.568C92.8901 1.912 91.9061 1.584 90.4981 1.584ZM102.582 18.072V17.472L103.062 17.424C103.622 17.36 104.046 17.28 104.334 17.184C104.638 17.072 104.846 16.848 104.958 16.512C105.07 16.16 105.126 15.592 105.126 14.808V11.112L100.926 3.768C100.558 3.112 100.19 2.624 99.8223 2.304C99.4543 1.984 98.9423 1.76 98.2863 1.632L97.5903 1.488V0.887999L101.238 0.959999L104.838 0.887999V1.488L104.07 1.56C103.67 1.592 103.35 1.688 103.11 1.848C102.87 2.008 102.75 2.248 102.75 2.568C102.75 2.936 102.926 3.424 103.278 4.032L106.782 10.128L110.262 4.032C110.614 3.392 110.79 2.896 110.79 2.544C110.79 2.208 110.662 1.968 110.406 1.824C110.15 1.68 109.822 1.592 109.422 1.56L108.726 1.488V0.887999L111.894 1.008L114.438 0.887999V1.488L113.79 1.608C113.278 1.704 112.854 1.888 112.518 2.16C112.198 2.432 111.87 2.864 111.534 3.456L107.166 11.088V14.808C107.166 15.592 107.222 16.16 107.334 16.512C107.446 16.848 107.654 17.072 107.958 17.184C108.262 17.28 108.686 17.36 109.23 17.424L109.71 17.472V18.072L106.158 18H106.134L102.582 18.072Z" fill="#1E1E1E"/>
</svg>
