<svg width="16" height="16" viewBox="0 0 16 16" fill="none" xmlns="http://www.w3.org/2000/svg">
<path d="M14.2222 0H1.77778C0.795556 0 0 0.795556 0 1.77778V14.2222C0 15.2044 0.795556 16 1.77778 16H14.2222C15.2044 16 16 15.2044 16 14.2222V1.77778C16 0.795556 15.2044 0 14.2222 0ZM13.2507 11.2747L11.7084 11.296C11.7084 11.296 11.376 11.3609 10.9404 11.0604C10.3636 10.664 9.81956 9.63289 9.39556 9.76711C8.96533 9.904 8.97867 10.832 8.97867 10.832C8.97867 10.832 8.98222 10.9956 8.88356 11.1022C8.77689 11.2169 8.568 11.2053 8.568 11.2053H7.87733C7.87733 11.2053 6.35378 11.3316 5.01067 9.93156C3.54756 8.40533 2.25511 5.39289 2.25511 5.39289C2.25511 5.39289 2.17956 5.20267 2.26044 5.10578C2.352 4.99822 2.59911 4.99556 2.59911 4.99556L4.24978 4.98756C4.24978 4.98756 4.40533 5.01511 4.51733 5.09689C4.60889 5.16444 4.66133 5.29156 4.66133 5.29156C4.66133 5.29156 4.928 5.968 5.28178 6.58044C5.97156 7.77422 6.29244 8.03556 6.52622 7.90756C6.86756 7.72089 6.76533 6.22044 6.76533 6.22044C6.76533 6.22044 6.77156 5.67556 6.59378 5.43289C6.45511 5.24356 6.19467 5.18756 6.08 5.17333C5.98667 5.16089 6.13867 4.94489 6.33689 4.84711C6.63378 4.70222 7.15911 4.69333 7.77867 4.69956C8.26133 4.70489 8.40089 4.73422 8.58933 4.78044C9.15911 4.91822 8.96533 5.44978 8.96533 6.72533C8.96533 7.13422 8.89155 7.70844 9.18578 7.89778C9.31289 7.97956 9.62222 7.91022 10.3947 6.59467C10.7618 5.97067 11.0364 5.23733 11.0364 5.23733C11.0364 5.23733 11.0969 5.10667 11.1902 5.05067C11.2862 4.99289 11.4151 5.01067 11.4151 5.01067L13.1529 5C13.1529 5 13.6747 4.93689 13.76 5.17422C13.8489 5.42222 13.5653 6.00089 12.8551 6.94756C11.6898 8.50311 11.56 8.35822 12.528 9.25778C13.4524 10.1173 13.6436 10.5351 13.6756 10.5876C14.0578 11.224 13.2507 11.2747 13.2507 11.2747Z" fill="#1E1E1E" fill-opacity="0.75"/>
</svg>
